<mxfile modified="2023-11-27T17:18:24.911Z" host="app.diagrams.net" agent="Mozilla/5.0 (Windows NT 10.0; Win64; x64) AppleWebKit/537.36 (KHTML, like Gecko) Chrome/119.0.0.0 Safari/537.36" etag="ooTb3_oVBIGAiX7VQTD5" version="22.1.4" type="github">
  <diagram id="Ht1M8jgEwFfnCIfOTk4-" name="Page-1">
    <mxGraphModel dx="3277" dy="1084" grid="1" gridSize="10" guides="1" tooltips="1" connect="1" arrows="1" fold="1" page="1" pageScale="1" pageWidth="1169" pageHeight="827" math="0" shadow="0">
      <root>
        <mxCell id="0" />
        <mxCell id="1" parent="0" />
        <mxCell id="ngmjlvJKXfXya2wn3A8B-20" value="Availability Zone" style="fillColor=none;strokeColor=#147EBA;dashed=1;verticalAlign=top;fontStyle=0;fontColor=#147EBA;whiteSpace=wrap;html=1;" vertex="1" parent="1">
          <mxGeometry x="376" y="617" width="230" height="500" as="geometry" />
        </mxCell>
        <mxCell id="ngmjlvJKXfXya2wn3A8B-2" value="AWS Cloud" style="sketch=0;outlineConnect=0;gradientColor=none;html=1;whiteSpace=wrap;fontSize=12;fontStyle=0;shape=mxgraph.aws4.group;grIcon=mxgraph.aws4.group_aws_cloud;strokeColor=#AAB7B8;fillColor=none;verticalAlign=top;align=left;spacingLeft=30;fontColor=#AAB7B8;dashed=0;" vertex="1" parent="1">
          <mxGeometry x="-90" y="70" width="1220" height="1094.5" as="geometry" />
        </mxCell>
        <mxCell id="ngmjlvJKXfXya2wn3A8B-22" value="VPC" style="sketch=0;outlineConnect=0;gradientColor=none;html=1;whiteSpace=wrap;fontSize=12;fontStyle=0;shape=mxgraph.aws4.group;grIcon=mxgraph.aws4.group_vpc;strokeColor=#879196;fillColor=none;verticalAlign=top;align=left;spacingLeft=30;fontColor=#879196;dashed=0;" vertex="1" parent="1">
          <mxGeometry x="386" y="677" width="630" height="470" as="geometry" />
        </mxCell>
        <mxCell id="ngmjlvJKXfXya2wn3A8B-21" value="Availability Zone" style="fillColor=none;strokeColor=#147EBA;dashed=1;verticalAlign=top;fontStyle=0;fontColor=#147EBA;whiteSpace=wrap;html=1;" vertex="1" parent="1">
          <mxGeometry x="625.75" y="617" width="230.25" height="500" as="geometry" />
        </mxCell>
        <mxCell id="UEzPUAAOIrF-is8g5C7q-129" style="edgeStyle=orthogonalEdgeStyle;rounded=0;orthogonalLoop=1;jettySize=auto;html=1;startArrow=open;startFill=0;endArrow=open;endFill=0;strokeWidth=2;strokeColor=#808080;" parent="1" source="UEzPUAAOIrF-is8g5C7q-114" target="UEzPUAAOIrF-is8g5C7q-115" edge="1">
          <mxGeometry relative="1" as="geometry">
            <Array as="points">
              <mxPoint x="510.5" y="391.5" />
              <mxPoint x="510.5" y="391.5" />
            </Array>
          </mxGeometry>
        </mxCell>
        <mxCell id="UEzPUAAOIrF-is8g5C7q-142" style="edgeStyle=orthogonalEdgeStyle;rounded=0;orthogonalLoop=1;jettySize=auto;html=1;startArrow=open;startFill=0;endArrow=open;endFill=0;strokeWidth=2;strokeColor=#808080;" parent="1" source="UEzPUAAOIrF-is8g5C7q-114" target="UEzPUAAOIrF-is8g5C7q-115" edge="1">
          <mxGeometry relative="1" as="geometry">
            <mxPoint x="457.5" y="386.5" as="sourcePoint" />
            <mxPoint x="590.5" y="386.5" as="targetPoint" />
            <Array as="points">
              <mxPoint x="510.5" y="371.5" />
              <mxPoint x="510.5" y="371.5" />
            </Array>
          </mxGeometry>
        </mxCell>
        <mxCell id="ngmjlvJKXfXya2wn3A8B-4" style="edgeStyle=orthogonalEdgeStyle;rounded=0;orthogonalLoop=1;jettySize=auto;html=1;" edge="1" parent="1" source="UEzPUAAOIrF-is8g5C7q-109" target="ngmjlvJKXfXya2wn3A8B-3">
          <mxGeometry relative="1" as="geometry">
            <Array as="points">
              <mxPoint x="-220" y="390" />
            </Array>
          </mxGeometry>
        </mxCell>
        <mxCell id="UEzPUAAOIrF-is8g5C7q-109" value="Usuario WEB" style="outlineConnect=0;gradientColor=none;fontColor=#545B64;strokeColor=none;fillColor=#879196;dashed=0;verticalLabelPosition=bottom;verticalAlign=top;align=center;html=1;fontSize=12;fontStyle=0;aspect=fixed;shape=mxgraph.aws4.illustration_desktop;pointerEvents=1;labelBackgroundColor=#ffffff;" parent="1" vertex="1">
          <mxGeometry x="-270" y="444" width="100" height="91" as="geometry" />
        </mxCell>
        <mxCell id="ngmjlvJKXfXya2wn3A8B-5" style="edgeStyle=orthogonalEdgeStyle;rounded=0;orthogonalLoop=1;jettySize=auto;html=1;" edge="1" parent="1" source="UEzPUAAOIrF-is8g5C7q-110" target="ngmjlvJKXfXya2wn3A8B-3">
          <mxGeometry relative="1" as="geometry">
            <Array as="points">
              <mxPoint x="-220" y="370" />
            </Array>
          </mxGeometry>
        </mxCell>
        <mxCell id="UEzPUAAOIrF-is8g5C7q-110" value="Usuario Mobile" style="outlineConnect=0;gradientColor=none;fontColor=#545B64;strokeColor=none;fillColor=#879196;dashed=0;verticalLabelPosition=bottom;verticalAlign=top;align=center;html=1;fontSize=12;fontStyle=0;aspect=fixed;shape=mxgraph.aws4.illustration_notification;pointerEvents=1;labelBackgroundColor=#ffffff;" parent="1" vertex="1">
          <mxGeometry x="-270" y="250" width="100" height="81" as="geometry" />
        </mxCell>
        <mxCell id="UEzPUAAOIrF-is8g5C7q-114" value="Amazon API&lt;br&gt;Gateway&lt;br&gt;" style="outlineConnect=0;fontColor=#232F3E;gradientColor=#945DF2;gradientDirection=north;fillColor=#5A30B5;strokeColor=#ffffff;dashed=0;verticalLabelPosition=bottom;verticalAlign=top;align=center;html=1;fontSize=12;fontStyle=0;aspect=fixed;shape=mxgraph.aws4.resourceIcon;resIcon=mxgraph.aws4.api_gateway;labelBackgroundColor=#ffffff;" parent="1" vertex="1">
          <mxGeometry x="120" y="336" width="78" height="78" as="geometry" />
        </mxCell>
        <mxCell id="ngmjlvJKXfXya2wn3A8B-74" value="" style="edgeStyle=orthogonalEdgeStyle;rounded=0;orthogonalLoop=1;jettySize=auto;html=1;" edge="1" parent="1" source="UEzPUAAOIrF-is8g5C7q-115" target="ngmjlvJKXfXya2wn3A8B-73">
          <mxGeometry relative="1" as="geometry" />
        </mxCell>
        <mxCell id="UEzPUAAOIrF-is8g5C7q-115" value="Lambda proxy" style="outlineConnect=0;fontColor=#232F3E;gradientColor=none;fillColor=#D05C17;strokeColor=none;dashed=0;verticalLabelPosition=bottom;verticalAlign=top;align=center;html=1;fontSize=12;fontStyle=0;aspect=fixed;pointerEvents=1;shape=mxgraph.aws4.lambda_function;labelBackgroundColor=#ffffff;" parent="1" vertex="1">
          <mxGeometry x="580.5" y="337.5" width="78" height="78" as="geometry" />
        </mxCell>
        <mxCell id="ngmjlvJKXfXya2wn3A8B-18" style="edgeStyle=orthogonalEdgeStyle;rounded=0;orthogonalLoop=1;jettySize=auto;html=1;" edge="1" parent="1" source="ngmjlvJKXfXya2wn3A8B-3" target="UEzPUAAOIrF-is8g5C7q-114">
          <mxGeometry relative="1" as="geometry" />
        </mxCell>
        <mxCell id="ngmjlvJKXfXya2wn3A8B-3" value="" style="sketch=0;points=[[0,0,0],[0.25,0,0],[0.5,0,0],[0.75,0,0],[1,0,0],[0,1,0],[0.25,1,0],[0.5,1,0],[0.75,1,0],[1,1,0],[0,0.25,0],[0,0.5,0],[0,0.75,0],[1,0.25,0],[1,0.5,0],[1,0.75,0]];outlineConnect=0;fontColor=#232F3E;fillColor=#8C4FFF;strokeColor=#ffffff;dashed=0;verticalLabelPosition=bottom;verticalAlign=top;align=center;html=1;fontSize=12;fontStyle=0;aspect=fixed;shape=mxgraph.aws4.resourceIcon;resIcon=mxgraph.aws4.route_53;" vertex="1" parent="1">
          <mxGeometry x="-40" y="336" width="78" height="78" as="geometry" />
        </mxCell>
        <mxCell id="ngmjlvJKXfXya2wn3A8B-14" value="Web Component" style="swimlane;startSize=0;dashed=1;" vertex="1" parent="1">
          <mxGeometry x="120" y="130" width="630" height="159" as="geometry" />
        </mxCell>
        <mxCell id="ngmjlvJKXfXya2wn3A8B-16" style="edgeStyle=orthogonalEdgeStyle;rounded=0;orthogonalLoop=1;jettySize=auto;html=1;" edge="1" parent="ngmjlvJKXfXya2wn3A8B-14" source="ngmjlvJKXfXya2wn3A8B-6" target="ngmjlvJKXfXya2wn3A8B-8">
          <mxGeometry relative="1" as="geometry" />
        </mxCell>
        <mxCell id="ngmjlvJKXfXya2wn3A8B-6" value="Lambda Edge" style="sketch=0;outlineConnect=0;fontColor=#232F3E;gradientColor=none;fillColor=#ED7100;strokeColor=none;dashed=0;verticalLabelPosition=bottom;verticalAlign=top;align=center;html=1;fontSize=12;fontStyle=0;aspect=fixed;pointerEvents=1;shape=mxgraph.aws4.lambda_function;" vertex="1" parent="ngmjlvJKXfXya2wn3A8B-14">
          <mxGeometry x="301.75" y="44" width="48" height="48" as="geometry" />
        </mxCell>
        <mxCell id="ngmjlvJKXfXya2wn3A8B-8" value="Amazon S3&amp;nbsp;&lt;br&gt;Sitio Web" style="sketch=0;points=[[0,0,0],[0.25,0,0],[0.5,0,0],[0.75,0,0],[1,0,0],[0,1,0],[0.25,1,0],[0.5,1,0],[0.75,1,0],[1,1,0],[0,0.25,0],[0,0.5,0],[0,0.75,0],[1,0.25,0],[1,0.5,0],[1,0.75,0]];outlineConnect=0;fontColor=#232F3E;fillColor=#7AA116;strokeColor=#ffffff;dashed=0;verticalLabelPosition=bottom;verticalAlign=top;align=center;html=1;fontSize=12;fontStyle=0;aspect=fixed;shape=mxgraph.aws4.resourceIcon;resIcon=mxgraph.aws4.s3;" vertex="1" parent="ngmjlvJKXfXya2wn3A8B-14">
          <mxGeometry x="491.5" y="29" width="78" height="78" as="geometry" />
        </mxCell>
        <mxCell id="ngmjlvJKXfXya2wn3A8B-7" value="CloudFront" style="sketch=0;points=[[0,0,0],[0.25,0,0],[0.5,0,0],[0.75,0,0],[1,0,0],[0,1,0],[0.25,1,0],[0.5,1,0],[0.75,1,0],[1,1,0],[0,0.25,0],[0,0.5,0],[0,0.75,0],[1,0.25,0],[1,0.5,0],[1,0.75,0]];outlineConnect=0;fontColor=#232F3E;fillColor=#8C4FFF;strokeColor=#ffffff;dashed=0;verticalLabelPosition=bottom;verticalAlign=top;align=center;html=1;fontSize=12;fontStyle=0;aspect=fixed;shape=mxgraph.aws4.resourceIcon;resIcon=mxgraph.aws4.cloudfront;" vertex="1" parent="ngmjlvJKXfXya2wn3A8B-14">
          <mxGeometry x="-40" y="29" width="78" height="78" as="geometry" />
        </mxCell>
        <mxCell id="ngmjlvJKXfXya2wn3A8B-15" style="edgeStyle=orthogonalEdgeStyle;rounded=0;orthogonalLoop=1;jettySize=auto;html=1;" edge="1" parent="ngmjlvJKXfXya2wn3A8B-14" source="ngmjlvJKXfXya2wn3A8B-7" target="ngmjlvJKXfXya2wn3A8B-6">
          <mxGeometry relative="1" as="geometry" />
        </mxCell>
        <mxCell id="ngmjlvJKXfXya2wn3A8B-23" value="Public subnet&lt;br&gt;" style="shape=mxgraph.ibm.box;prType=subnet;fontStyle=0;verticalAlign=top;align=left;spacingLeft=32;spacingTop=4;fillColor=#E6F0E2;rounded=0;whiteSpace=wrap;html=1;strokeColor=#00882B;strokeWidth=1;dashed=0;container=1;spacing=-4;collapsible=0;expand=0;recursiveResize=0;" vertex="1" parent="1">
          <mxGeometry x="396" y="707" width="190" height="110" as="geometry" />
        </mxCell>
        <mxCell id="ngmjlvJKXfXya2wn3A8B-25" value="NAT gateway" style="sketch=0;outlineConnect=0;fontColor=#232F3E;gradientColor=none;strokeColor=#966cf9;fillColor=none;dashed=0;verticalLabelPosition=bottom;verticalAlign=top;align=center;html=1;fontSize=12;fontStyle=0;aspect=fixed;shape=mxgraph.aws4.resourceIcon;resIcon=mxgraph.aws4.nat_gateway;" vertex="1" parent="ngmjlvJKXfXya2wn3A8B-23">
          <mxGeometry x="70" y="30" width="60" height="60" as="geometry" />
        </mxCell>
        <mxCell id="ngmjlvJKXfXya2wn3A8B-24" value="Public subnet&lt;br&gt;" style="shape=mxgraph.ibm.box;prType=subnet;fontStyle=0;verticalAlign=top;align=left;spacingLeft=32;spacingTop=4;fillColor=#E6F0E2;rounded=0;whiteSpace=wrap;html=1;strokeColor=#00882B;strokeWidth=1;dashed=0;container=1;spacing=-4;collapsible=0;expand=0;recursiveResize=0;" vertex="1" parent="1">
          <mxGeometry x="642.5" y="707" width="190" height="110" as="geometry" />
        </mxCell>
        <mxCell id="ngmjlvJKXfXya2wn3A8B-26" value="NAT gateway" style="sketch=0;outlineConnect=0;fontColor=#232F3E;gradientColor=none;strokeColor=#966cf9;fillColor=none;dashed=0;verticalLabelPosition=bottom;verticalAlign=top;align=center;html=1;fontSize=12;fontStyle=0;aspect=fixed;shape=mxgraph.aws4.resourceIcon;resIcon=mxgraph.aws4.nat_gateway;" vertex="1" parent="ngmjlvJKXfXya2wn3A8B-24">
          <mxGeometry x="65" y="30" width="60" height="60" as="geometry" />
        </mxCell>
        <mxCell id="ngmjlvJKXfXya2wn3A8B-48" value="Private subnet" style="points=[[0,0],[0.25,0],[0.5,0],[0.75,0],[1,0],[1,0.25],[1,0.5],[1,0.75],[1,1],[0.75,1],[0.5,1],[0.25,1],[0,1],[0,0.75],[0,0.5],[0,0.25]];outlineConnect=0;gradientColor=none;html=1;whiteSpace=wrap;fontSize=12;fontStyle=0;container=1;pointerEvents=0;collapsible=0;recursiveResize=0;shape=mxgraph.aws4.group;grIcon=mxgraph.aws4.group_security_group;grStroke=0;strokeColor=#00A4A6;fillColor=#E6F6F7;verticalAlign=top;align=left;spacingLeft=30;fontColor=#147EBA;dashed=0;" vertex="1" parent="1">
          <mxGeometry x="643" y="827" width="190" height="260" as="geometry" />
        </mxCell>
        <mxCell id="ngmjlvJKXfXya2wn3A8B-49" value="" style="sketch=0;outlineConnect=0;fontColor=#232F3E;gradientColor=none;fillColor=#C925D1;strokeColor=none;dashed=0;verticalLabelPosition=bottom;verticalAlign=top;align=center;html=1;fontSize=12;fontStyle=0;aspect=fixed;pointerEvents=1;shape=mxgraph.aws4.rds_instance;" vertex="1" parent="ngmjlvJKXfXya2wn3A8B-48">
          <mxGeometry x="56" y="170" width="78" height="78" as="geometry" />
        </mxCell>
        <mxCell id="ngmjlvJKXfXya2wn3A8B-50" style="edgeStyle=orthogonalEdgeStyle;rounded=0;orthogonalLoop=1;jettySize=auto;html=1;" edge="1" parent="1" source="ngmjlvJKXfXya2wn3A8B-51" target="ngmjlvJKXfXya2wn3A8B-49">
          <mxGeometry relative="1" as="geometry" />
        </mxCell>
        <mxCell id="ngmjlvJKXfXya2wn3A8B-51" value="" style="sketch=0;html=1;dashed=0;whitespace=wrap;fillColor=#2875E2;strokeColor=#ffffff;points=[[0.005,0.63,0],[0.1,0.2,0],[0.9,0.2,0],[0.5,0,0],[0.995,0.63,0],[0.72,0.99,0],[0.5,1,0],[0.28,0.99,0]];verticalLabelPosition=bottom;align=center;verticalAlign=top;shape=mxgraph.kubernetes.icon;prIcon=pod" vertex="1" parent="1">
          <mxGeometry x="655.5" y="872" width="70" height="76" as="geometry" />
        </mxCell>
        <mxCell id="ngmjlvJKXfXya2wn3A8B-52" style="edgeStyle=orthogonalEdgeStyle;rounded=0;orthogonalLoop=1;jettySize=auto;html=1;" edge="1" parent="1" source="ngmjlvJKXfXya2wn3A8B-53" target="ngmjlvJKXfXya2wn3A8B-49">
          <mxGeometry relative="1" as="geometry" />
        </mxCell>
        <mxCell id="ngmjlvJKXfXya2wn3A8B-72" value="" style="edgeStyle=orthogonalEdgeStyle;rounded=0;orthogonalLoop=1;jettySize=auto;html=1;" edge="1" parent="1" source="ngmjlvJKXfXya2wn3A8B-53" target="ngmjlvJKXfXya2wn3A8B-61">
          <mxGeometry relative="1" as="geometry">
            <Array as="points">
              <mxPoint x="836" y="913" />
              <mxPoint x="836" y="913" />
            </Array>
          </mxGeometry>
        </mxCell>
        <mxCell id="ngmjlvJKXfXya2wn3A8B-53" value="" style="sketch=0;html=1;dashed=0;whitespace=wrap;fillColor=#2875E2;strokeColor=#ffffff;points=[[0.005,0.63,0],[0.1,0.2,0],[0.9,0.2,0],[0.5,0,0],[0.995,0.63,0],[0.72,0.99,0],[0.5,1,0],[0.28,0.99,0]];verticalLabelPosition=bottom;align=center;verticalAlign=top;shape=mxgraph.kubernetes.icon;prIcon=pod" vertex="1" parent="1">
          <mxGeometry x="741.5" y="872" width="70" height="76" as="geometry" />
        </mxCell>
        <mxCell id="ngmjlvJKXfXya2wn3A8B-59" value="" style="edgeStyle=orthogonalEdgeStyle;rounded=0;orthogonalLoop=1;jettySize=auto;html=1;dashed=1;" edge="1" parent="1" source="ngmjlvJKXfXya2wn3A8B-55" target="ngmjlvJKXfXya2wn3A8B-58">
          <mxGeometry relative="1" as="geometry" />
        </mxCell>
        <mxCell id="ngmjlvJKXfXya2wn3A8B-55" value="SNS &lt;br&gt;publicadores&lt;br&gt;suscriptores" style="sketch=0;points=[[0,0,0],[0.25,0,0],[0.5,0,0],[0.75,0,0],[1,0,0],[0,1,0],[0.25,1,0],[0.5,1,0],[0.75,1,0],[1,1,0],[0,0.25,0],[0,0.5,0],[0,0.75,0],[1,0.25,0],[1,0.5,0],[1,0.75,0]];outlineConnect=0;fontColor=#232F3E;fillColor=#E7157B;strokeColor=#ffffff;dashed=0;verticalLabelPosition=bottom;verticalAlign=top;align=center;html=1;fontSize=12;fontStyle=0;aspect=fixed;shape=mxgraph.aws4.resourceIcon;resIcon=mxgraph.aws4.sns;" vertex="1" parent="1">
          <mxGeometry x="916" y="697" width="40" height="40" as="geometry" />
        </mxCell>
        <mxCell id="ngmjlvJKXfXya2wn3A8B-58" value="Colas SQS" style="sketch=0;points=[[0,0,0],[0.25,0,0],[0.5,0,0],[0.75,0,0],[1,0,0],[0,1,0],[0.25,1,0],[0.5,1,0],[0.75,1,0],[1,1,0],[0,0.25,0],[0,0.5,0],[0,0.75,0],[1,0.25,0],[1,0.5,0],[1,0.75,0]];outlineConnect=0;fontColor=#232F3E;fillColor=#E7157B;strokeColor=#ffffff;dashed=0;verticalLabelPosition=bottom;verticalAlign=top;align=center;html=1;fontSize=12;fontStyle=0;aspect=fixed;shape=mxgraph.aws4.resourceIcon;resIcon=mxgraph.aws4.sqs;" vertex="1" parent="1">
          <mxGeometry x="916" y="807" width="40" height="40" as="geometry" />
        </mxCell>
        <mxCell id="ngmjlvJKXfXya2wn3A8B-61" value="Cognito" style="outlineConnect=0;dashed=0;verticalLabelPosition=bottom;verticalAlign=top;align=center;html=1;shape=mxgraph.aws3.cognito;fillColor=#AD688B;gradientColor=none;" vertex="1" parent="1">
          <mxGeometry x="916" y="891" width="40" height="43" as="geometry" />
        </mxCell>
        <mxCell id="ngmjlvJKXfXya2wn3A8B-62" value="S3" style="sketch=0;points=[[0,0,0],[0.25,0,0],[0.5,0,0],[0.75,0,0],[1,0,0],[0,1,0],[0.25,1,0],[0.5,1,0],[0.75,1,0],[1,1,0],[0,0.25,0],[0,0.5,0],[0,0.75,0],[1,0.25,0],[1,0.5,0],[1,0.75,0]];outlineConnect=0;fontColor=#232F3E;fillColor=#7AA116;strokeColor=#ffffff;dashed=0;verticalLabelPosition=bottom;verticalAlign=top;align=center;html=1;fontSize=12;fontStyle=0;aspect=fixed;shape=mxgraph.aws4.resourceIcon;resIcon=mxgraph.aws4.s3;" vertex="1" parent="1">
          <mxGeometry x="916" y="967" width="40" height="40" as="geometry" />
        </mxCell>
        <mxCell id="ngmjlvJKXfXya2wn3A8B-63" value="Dynamo BD" style="outlineConnect=0;dashed=0;verticalLabelPosition=bottom;verticalAlign=top;align=center;html=1;shape=mxgraph.aws3.dynamo_db;fillColor=#2E73B8;gradientColor=none;" vertex="1" parent="1">
          <mxGeometry x="920" y="1046" width="36" height="41" as="geometry" />
        </mxCell>
        <mxCell id="ngmjlvJKXfXya2wn3A8B-66" style="edgeStyle=orthogonalEdgeStyle;rounded=0;orthogonalLoop=1;jettySize=auto;html=1;entryX=0;entryY=0.5;entryDx=0;entryDy=0;entryPerimeter=0;" edge="1" parent="1" source="ngmjlvJKXfXya2wn3A8B-53" target="ngmjlvJKXfXya2wn3A8B-55">
          <mxGeometry relative="1" as="geometry">
            <Array as="points">
              <mxPoint x="866" y="914" />
              <mxPoint x="866" y="717" />
            </Array>
          </mxGeometry>
        </mxCell>
        <mxCell id="ngmjlvJKXfXya2wn3A8B-67" style="edgeStyle=orthogonalEdgeStyle;rounded=0;orthogonalLoop=1;jettySize=auto;html=1;entryX=0;entryY=0.5;entryDx=0;entryDy=0;entryPerimeter=0;" edge="1" parent="1" source="ngmjlvJKXfXya2wn3A8B-53" target="ngmjlvJKXfXya2wn3A8B-58">
          <mxGeometry relative="1" as="geometry">
            <Array as="points">
              <mxPoint x="866" y="914" />
              <mxPoint x="866" y="827" />
            </Array>
          </mxGeometry>
        </mxCell>
        <mxCell id="ngmjlvJKXfXya2wn3A8B-69" style="edgeStyle=orthogonalEdgeStyle;rounded=0;orthogonalLoop=1;jettySize=auto;html=1;entryX=0;entryY=0.5;entryDx=0;entryDy=0;entryPerimeter=0;" edge="1" parent="1" source="ngmjlvJKXfXya2wn3A8B-53" target="ngmjlvJKXfXya2wn3A8B-62">
          <mxGeometry relative="1" as="geometry">
            <Array as="points">
              <mxPoint x="866" y="914" />
              <mxPoint x="866" y="987" />
            </Array>
          </mxGeometry>
        </mxCell>
        <mxCell id="ngmjlvJKXfXya2wn3A8B-70" style="edgeStyle=orthogonalEdgeStyle;rounded=0;orthogonalLoop=1;jettySize=auto;html=1;entryX=0;entryY=0.5;entryDx=0;entryDy=0;entryPerimeter=0;" edge="1" parent="1" source="ngmjlvJKXfXya2wn3A8B-53" target="ngmjlvJKXfXya2wn3A8B-63">
          <mxGeometry relative="1" as="geometry">
            <Array as="points">
              <mxPoint x="866" y="914" />
              <mxPoint x="866" y="1067" />
            </Array>
          </mxGeometry>
        </mxCell>
        <mxCell id="ngmjlvJKXfXya2wn3A8B-75" style="rounded=0;orthogonalLoop=1;jettySize=auto;html=1;" edge="1" parent="1" source="ngmjlvJKXfXya2wn3A8B-73" target="ngmjlvJKXfXya2wn3A8B-20">
          <mxGeometry relative="1" as="geometry" />
        </mxCell>
        <mxCell id="ngmjlvJKXfXya2wn3A8B-76" style="rounded=0;orthogonalLoop=1;jettySize=auto;html=1;" edge="1" parent="1" source="ngmjlvJKXfXya2wn3A8B-73" target="ngmjlvJKXfXya2wn3A8B-21">
          <mxGeometry relative="1" as="geometry" />
        </mxCell>
        <mxCell id="ngmjlvJKXfXya2wn3A8B-73" value="" style="sketch=0;outlineConnect=0;fontColor=#232F3E;gradientColor=none;fillColor=#8C4FFF;strokeColor=none;dashed=0;verticalLabelPosition=bottom;verticalAlign=top;align=center;html=1;fontSize=12;fontStyle=0;aspect=fixed;pointerEvents=1;shape=mxgraph.aws4.application_load_balancer;" vertex="1" parent="1">
          <mxGeometry x="581" y="490" width="78" height="78" as="geometry" />
        </mxCell>
        <mxCell id="ngmjlvJKXfXya2wn3A8B-77" value="" style="group" vertex="1" connectable="0" parent="1">
          <mxGeometry x="396" y="827" width="190" height="260" as="geometry" />
        </mxCell>
        <mxCell id="ngmjlvJKXfXya2wn3A8B-29" value="Private subnet" style="points=[[0,0],[0.25,0],[0.5,0],[0.75,0],[1,0],[1,0.25],[1,0.5],[1,0.75],[1,1],[0.75,1],[0.5,1],[0.25,1],[0,1],[0,0.75],[0,0.5],[0,0.25]];outlineConnect=0;gradientColor=none;html=1;whiteSpace=wrap;fontSize=12;fontStyle=0;container=0;pointerEvents=0;collapsible=0;recursiveResize=0;shape=mxgraph.aws4.group;grIcon=mxgraph.aws4.group_security_group;grStroke=0;strokeColor=#00A4A6;fillColor=#E6F6F7;verticalAlign=top;align=left;spacingLeft=30;fontColor=#147EBA;dashed=0;" vertex="1" parent="ngmjlvJKXfXya2wn3A8B-77">
          <mxGeometry width="190" height="260" as="geometry" />
        </mxCell>
        <mxCell id="ngmjlvJKXfXya2wn3A8B-19" value="" style="sketch=0;html=1;dashed=0;whitespace=wrap;fillColor=#2875E2;strokeColor=#ffffff;points=[[0.005,0.63,0],[0.1,0.2,0],[0.9,0.2,0],[0.5,0,0],[0.995,0.63,0],[0.72,0.99,0],[0.5,1,0],[0.28,0.99,0]];verticalLabelPosition=bottom;align=center;verticalAlign=top;shape=mxgraph.kubernetes.icon;prIcon=pod" vertex="1" parent="ngmjlvJKXfXya2wn3A8B-77">
          <mxGeometry x="12.5" y="46" width="70" height="76" as="geometry" />
        </mxCell>
        <mxCell id="ngmjlvJKXfXya2wn3A8B-30" value="" style="sketch=0;html=1;dashed=0;whitespace=wrap;fillColor=#2875E2;strokeColor=#ffffff;points=[[0.005,0.63,0],[0.1,0.2,0],[0.9,0.2,0],[0.5,0,0],[0.995,0.63,0],[0.72,0.99,0],[0.5,1,0],[0.28,0.99,0]];verticalLabelPosition=bottom;align=center;verticalAlign=top;shape=mxgraph.kubernetes.icon;prIcon=pod" vertex="1" parent="ngmjlvJKXfXya2wn3A8B-77">
          <mxGeometry x="98.5" y="46" width="70" height="76" as="geometry" />
        </mxCell>
        <mxCell id="ngmjlvJKXfXya2wn3A8B-31" value="" style="sketch=0;outlineConnect=0;fontColor=#232F3E;gradientColor=none;fillColor=#C925D1;strokeColor=none;dashed=0;verticalLabelPosition=bottom;verticalAlign=top;align=center;html=1;fontSize=12;fontStyle=0;aspect=fixed;pointerEvents=1;shape=mxgraph.aws4.rds_instance;" vertex="1" parent="ngmjlvJKXfXya2wn3A8B-77">
          <mxGeometry x="56" y="170" width="78" height="78" as="geometry" />
        </mxCell>
        <mxCell id="ngmjlvJKXfXya2wn3A8B-32" style="edgeStyle=orthogonalEdgeStyle;rounded=0;orthogonalLoop=1;jettySize=auto;html=1;" edge="1" parent="ngmjlvJKXfXya2wn3A8B-77" source="ngmjlvJKXfXya2wn3A8B-19" target="ngmjlvJKXfXya2wn3A8B-31">
          <mxGeometry relative="1" as="geometry" />
        </mxCell>
        <mxCell id="ngmjlvJKXfXya2wn3A8B-33" style="edgeStyle=orthogonalEdgeStyle;rounded=0;orthogonalLoop=1;jettySize=auto;html=1;" edge="1" parent="ngmjlvJKXfXya2wn3A8B-77" source="ngmjlvJKXfXya2wn3A8B-30" target="ngmjlvJKXfXya2wn3A8B-31">
          <mxGeometry relative="1" as="geometry" />
        </mxCell>
        <mxCell id="ngmjlvJKXfXya2wn3A8B-78" value="" style="edgeStyle=orthogonalEdgeStyle;rounded=0;orthogonalLoop=1;jettySize=auto;html=1;startArrow=classic;startFill=1;" edge="1" parent="1" source="ngmjlvJKXfXya2wn3A8B-29" target="ngmjlvJKXfXya2wn3A8B-48">
          <mxGeometry relative="1" as="geometry" />
        </mxCell>
        <mxCell id="ngmjlvJKXfXya2wn3A8B-54" style="edgeStyle=orthogonalEdgeStyle;rounded=0;orthogonalLoop=1;jettySize=auto;html=1;startArrow=classic;startFill=1;" edge="1" parent="1" source="ngmjlvJKXfXya2wn3A8B-31" target="ngmjlvJKXfXya2wn3A8B-49">
          <mxGeometry relative="1" as="geometry" />
        </mxCell>
        <mxCell id="ngmjlvJKXfXya2wn3A8B-79" style="edgeStyle=orthogonalEdgeStyle;rounded=0;orthogonalLoop=1;jettySize=auto;html=1;entryX=0;entryY=0.5;entryDx=0;entryDy=0;entryPerimeter=0;" edge="1" parent="1" source="ngmjlvJKXfXya2wn3A8B-3" target="ngmjlvJKXfXya2wn3A8B-7">
          <mxGeometry relative="1" as="geometry">
            <Array as="points">
              <mxPoint x="10" y="198" />
            </Array>
          </mxGeometry>
        </mxCell>
      </root>
    </mxGraphModel>
  </diagram>
</mxfile>
